<svg aria-hidden="true" style="position: absolute; width: 0; height: 0; overflow: hidden;" version="1.1" xmlns="http://www.w3.org/2000/svg" xmlns:xlink="http://www.w3.org/1999/xlink">
<defs>
<symbol id="icon-codepen" viewBox="0 0 32 32">
<path fill="none" stroke="#678398" style="stroke: var(--color1, #678398)" stroke-linejoin="round" stroke-linecap="round" stroke-miterlimit="4" stroke-width="2.6667" d="M16 2.667l13.333 8.667v9.333l-13.333 8.667-13.333-8.667v-9.333l13.333-8.667z"></path>
<path fill="none" stroke="#678398" style="stroke: var(--color1, #678398)" stroke-linejoin="round" stroke-linecap="round" stroke-miterlimit="4" stroke-width="2.6667" d="M16 29.333v-8.667"></path>
<path fill="none" stroke="#678398" style="stroke: var(--color1, #678398)" stroke-linejoin="round" stroke-linecap="round" stroke-miterlimit="4" stroke-width="2.6667" d="M29.333 11.333l-13.333 9.333-13.333-9.333"></path>
<path fill="none" stroke="#678398" style="stroke: var(--color1, #678398)" stroke-linejoin="round" stroke-linecap="round" stroke-miterlimit="4" stroke-width="2.6667" d="M2.667 20.667l13.333-9.333 13.333 9.333"></path>
<path fill="none" stroke="#678398" style="stroke: var(--color1, #678398)" stroke-linejoin="round" stroke-linecap="round" stroke-miterlimit="4" stroke-width="2.6667" d="M16 2.667v8.667"></path>
</symbol>
<symbol id="icon-facebook" viewBox="0 0 32 32">
<path fill="none" stroke="#678398" style="stroke: var(--color1, #678398)" stroke-linejoin="round" stroke-linecap="round" stroke-miterlimit="4" stroke-width="2.6667" d="M24 2.667h-4c-1.768 0-3.464 0.702-4.714 1.953s-1.953 2.946-1.953 4.714v4h-4v5.333h4v10.667h5.333v-10.667h4l1.333-5.333h-5.333v-4c0-0.354 0.141-0.693 0.391-0.943s0.589-0.391 0.943-0.391h4v-5.333z"></path>
</symbol>
<symbol id="icon-figma" viewBox="0 0 32 32">
<path fill="none" stroke="#678398" style="stroke: var(--color1, #678398)" stroke-linejoin="round" stroke-linecap="round" stroke-miterlimit="4" stroke-width="2.6667" d="M6.667 7.333c0-1.238 0.492-2.425 1.367-3.3s2.062-1.367 3.3-1.367h4.667v9.333h-4.667c-1.238 0-2.425-0.492-3.3-1.367s-1.367-2.062-1.367-3.3z"></path>
<path fill="none" stroke="#678398" style="stroke: var(--color1, #678398)" stroke-linejoin="round" stroke-linecap="round" stroke-miterlimit="4" stroke-width="2.6667" d="M16 2.667h4.667c0.613 0 1.22 0.121 1.786 0.355s1.081 0.578 1.514 1.012c0.433 0.433 0.777 0.948 1.012 1.514s0.355 1.173 0.355 1.786c0 0.613-0.121 1.22-0.355 1.786s-0.578 1.081-1.012 1.514c-0.433 0.433-0.948 0.777-1.514 1.012s-1.173 0.355-1.786 0.355h-4.667v-9.333z"></path>
<path fill="none" stroke="#678398" style="stroke: var(--color1, #678398)" stroke-linejoin="round" stroke-linecap="round" stroke-miterlimit="4" stroke-width="2.6667" d="M16 16.667c0-0.613 0.121-1.22 0.355-1.786s0.578-1.081 1.012-1.514c0.433-0.433 0.948-0.777 1.514-1.012s1.173-0.355 1.786-0.355c0.613 0 1.22 0.121 1.786 0.355s1.081 0.578 1.514 1.012c0.433 0.433 0.777 0.948 1.012 1.514s0.355 1.173 0.355 1.786c0 0.613-0.121 1.22-0.355 1.786s-0.578 1.081-1.012 1.514c-0.433 0.433-0.948 0.777-1.514 1.012s-1.173 0.355-1.786 0.355c-0.613 0-1.22-0.121-1.786-0.355s-1.081-0.578-1.514-1.012c-0.433-0.433-0.777-0.948-1.012-1.514s-0.355-1.173-0.355-1.786zM16 16.667v0z"></path>
<path fill="none" stroke="#678398" style="stroke: var(--color1, #678398)" stroke-linejoin="round" stroke-linecap="round" stroke-miterlimit="4" stroke-width="2.6667" d="M6.667 26c0-1.238 0.492-2.425 1.367-3.3s2.062-1.367 3.3-1.367h4.667v4.667c0 1.238-0.492 2.425-1.367 3.3s-2.062 1.367-3.3 1.367c-1.238 0-2.425-0.492-3.3-1.367s-1.367-2.062-1.367-3.3z"></path>
<path fill="none" stroke="#678398" style="stroke: var(--color1, #678398)" stroke-linejoin="round" stroke-linecap="round" stroke-miterlimit="4" stroke-width="2.6667" d="M6.667 16.667c0-1.238 0.492-2.425 1.367-3.3s2.062-1.367 3.3-1.367h4.667v9.333h-4.667c-1.238 0-2.425-0.492-3.3-1.367s-1.367-2.062-1.367-3.3z"></path>
</symbol>
<symbol id="icon-github" viewBox="0 0 32 32">
<path fill="none" stroke="#678398" style="stroke: var(--color1, #678398)" stroke-linejoin="round" stroke-linecap="round" stroke-miterlimit="4" stroke-width="2.6667" d="M21.333 29.333v-5.16c0.050-0.636-0.036-1.275-0.252-1.875s-0.557-1.147-1.001-1.605c4.187-0.467 8.587-2.053 8.587-9.333-0-1.862-0.716-3.652-2-5 0.608-1.629 0.565-3.429-0.12-5.027 0 0-1.573-0.467-5.213 1.973-3.056-0.828-6.277-0.828-9.333 0-3.64-2.44-5.213-1.973-5.213-1.973-0.685 1.598-0.728 3.398-0.12 5.027-1.293 1.358-2.010 3.165-2 5.040 0 7.227 4.4 8.813 8.587 9.333-0.439 0.453-0.777 0.994-0.993 1.587s-0.305 1.224-0.26 1.853v5.16M12 25.333c-6.667 2-6.667-3.333-9.333-4l9.333 4z"></path>
</symbol>
<symbol id="icon-gitlab" viewBox="0 0 32 32">
<path fill="none" stroke="#678398" style="stroke: var(--color1, #678398)" stroke-linejoin="round" stroke-linecap="round" stroke-miterlimit="4" stroke-width="2.6667" d="M30.2 19.187l-14.2 10.32-14.2-10.32c-0.19-0.14-0.332-0.337-0.403-0.562s-0.071-0.467 0.003-0.692l1.627-5.040 3.253-10.013c0.032-0.082 0.082-0.155 0.147-0.213 0.106-0.096 0.244-0.15 0.387-0.15s0.281 0.054 0.387 0.15c0.069 0.066 0.119 0.149 0.147 0.24l3.253 9.987h10.8l3.253-10.013c0.032-0.082 0.082-0.155 0.147-0.213 0.106-0.096 0.244-0.15 0.387-0.15s0.281 0.054 0.387 0.15c0.069 0.066 0.119 0.149 0.147 0.24l3.253 10.013 1.693 5.013c0.067 0.231 0.058 0.478-0.026 0.704s-0.239 0.418-0.441 0.549zM30.2 19.187v0z"></path>
</symbol>
<symbol id="icon-instagram" viewBox="0 0 32 32">
<path fill="none" stroke="#678398" style="stroke: var(--color1, #678398)" stroke-linejoin="round" stroke-linecap="round" stroke-miterlimit="4" stroke-width="2.6667" d="M22.667 2.667h-13.333c-3.682 0-6.667 2.985-6.667 6.667v13.333c0 3.682 2.985 6.667 6.667 6.667h13.333c3.682 0 6.667-2.985 6.667-6.667v-13.333c0-3.682-2.985-6.667-6.667-6.667z"></path>
<path fill="none" stroke="#678398" style="stroke: var(--color1, #678398)" stroke-linejoin="round" stroke-linecap="round" stroke-miterlimit="4" stroke-width="2.6667" d="M21.333 15.16c0.165 1.11-0.025 2.243-0.542 3.239s-1.334 1.803-2.336 2.308c-1.002 0.504-2.137 0.68-3.245 0.502s-2.131-0.701-2.924-1.494c-0.793-0.793-1.316-1.816-1.494-2.924s-0.003-2.243 0.502-3.245c0.504-1.002 1.312-1.82 2.308-2.336s2.129-0.706 3.239-0.542c1.132 0.168 2.18 0.695 2.989 1.504s1.337 1.857 1.504 2.989z"></path>
<path fill="none" stroke="#678398" style="stroke: var(--color1, #678398)" stroke-linejoin="round" stroke-linecap="round" stroke-miterlimit="4" stroke-width="2.6667" d="M23.333 8.667h0.013"></path>
</symbol>
<symbol id="icon-linkedin" viewBox="0 0 32 32">
<path fill="none" stroke="#678398" style="stroke: var(--color1, #678398)" stroke-linejoin="round" stroke-linecap="round" stroke-miterlimit="4" stroke-width="2.6667" d="M21.333 10.667c2.122 0 4.157 0.843 5.657 2.343s2.343 3.535 2.343 5.657v9.333h-5.333v-9.333c0-0.707-0.281-1.385-0.781-1.886s-1.178-0.781-1.886-0.781c-0.707 0-1.385 0.281-1.886 0.781s-0.781 1.178-0.781 1.886v9.333h-5.333v-9.333c0-2.122 0.843-4.157 2.343-5.657s3.535-2.343 5.657-2.343zM21.333 10.667v0z"></path>
<path fill="none" stroke="#678398" style="stroke: var(--color1, #678398)" stroke-linejoin="round" stroke-linecap="round" stroke-miterlimit="4" stroke-width="2.6667" d="M8 12h-5.333v16h5.333v-16z"></path>
<path fill="none" stroke="#678398" style="stroke: var(--color1, #678398)" stroke-linejoin="round" stroke-linecap="round" stroke-miterlimit="4" stroke-width="2.6667" d="M5.333 8c1.473 0 2.667-1.194 2.667-2.667s-1.194-2.667-2.667-2.667c-1.473 0-2.667 1.194-2.667 2.667s1.194 2.667 2.667 2.667z"></path>
</symbol>
<symbol id="icon-twitch" viewBox="0 0 32 32">
<path fill="none" stroke="#678398" style="stroke: var(--color1, #678398)" stroke-linejoin="round" stroke-linecap="round" stroke-miterlimit="4" stroke-width="2.6667" d="M14.667 14.667v-5.333M21.333 14.667v-5.333M28 2.667h-24v21.333h6.667v5.333l5.333-5.333h6.667l5.333-5.333v-16z"></path>
</symbol>
<symbol id="icon-twitter" viewBox="0 0 32 32">
<path fill="none" stroke="#678398" style="stroke: var(--color1, #678398)" stroke-linejoin="round" stroke-linecap="round" stroke-miterlimit="4" stroke-width="2.6667" d="M30.667 4c-1.277 0.901-2.691 1.589-4.187 2.040-0.803-0.923-1.87-1.578-3.057-1.875s-2.437-0.222-3.58 0.214c-1.143 0.436-2.125 1.213-2.812 2.226s-1.047 2.211-1.031 3.435v1.333c-2.343 0.061-4.665-0.459-6.759-1.513s-3.894-2.609-5.241-4.527c0 0-5.333 12 6.667 17.333-2.746 1.864-6.017 2.799-9.333 2.667 12 6.667 26.667 0 26.667-15.333-0.001-0.371-0.037-0.742-0.107-1.107 1.361-1.342 2.321-3.036 2.773-4.893zM30.667 4v0z"></path>
</symbol>
<symbol id="icon-youtube" viewBox="0 0 32 32">
<path fill="none" stroke="#678398" style="stroke: var(--color1, #678398)" stroke-linejoin="round" stroke-linecap="round" stroke-miterlimit="4" stroke-width="2.6667" d="M30.053 8.56c-0.158-0.633-0.481-1.213-0.935-1.681s-1.024-0.808-1.651-0.986c-2.293-0.56-11.467-0.56-11.467-0.56s-9.173 0-11.467 0.613c-0.628 0.178-1.197 0.518-1.652 0.986s-0.777 1.048-0.935 1.681c-0.42 2.327-0.625 4.688-0.613 7.053-0.015 2.383 0.19 4.762 0.613 7.107 0.175 0.613 0.504 1.171 0.958 1.619s1.014 0.772 1.629 0.941c2.293 0.613 11.467 0.613 11.467 0.613s9.173 0 11.467-0.613c0.628-0.178 1.197-0.518 1.651-0.986s0.777-1.048 0.935-1.681c0.417-2.31 0.622-4.653 0.613-7 0.015-2.383-0.19-4.762-0.613-7.107zM30.053 8.56v0z"></path>
<path fill="none" stroke="#678398" style="stroke: var(--color1, #678398)" stroke-linejoin="round" stroke-linecap="round" stroke-miterlimit="4" stroke-width="2.6667" d="M13 20.027l7.667-4.36-7.667-4.36v8.72z"></path>
</symbol>
</defs>
</svg>
