<!-- Generated by IcoMoon.io -->
<svg version="1.1" xmlns="http://www.w3.org/2000/svg" width="32" height="32" viewBox="0 0 32 32">
<title>figma</title>
<path fill="none" stroke="#678398" stroke-linejoin="round" stroke-linecap="round" stroke-miterlimit="4" stroke-width="2.6667" d="M6.667 7.333c0-1.238 0.492-2.425 1.367-3.3s2.062-1.367 3.3-1.367h4.667v9.333h-4.667c-1.238 0-2.425-0.492-3.3-1.367s-1.367-2.062-1.367-3.3z"></path>
<path fill="none" stroke="#678398" stroke-linejoin="round" stroke-linecap="round" stroke-miterlimit="4" stroke-width="2.6667" d="M16 2.667h4.667c0.613 0 1.22 0.121 1.786 0.355s1.081 0.578 1.514 1.012c0.433 0.433 0.777 0.948 1.012 1.514s0.355 1.173 0.355 1.786c0 0.613-0.121 1.22-0.355 1.786s-0.578 1.081-1.012 1.514c-0.433 0.433-0.948 0.777-1.514 1.012s-1.173 0.355-1.786 0.355h-4.667v-9.333z"></path>
<path fill="none" stroke="#678398" stroke-linejoin="round" stroke-linecap="round" stroke-miterlimit="4" stroke-width="2.6667" d="M16 16.667c0-0.613 0.121-1.22 0.355-1.786s0.578-1.081 1.012-1.514c0.433-0.433 0.948-0.777 1.514-1.012s1.173-0.355 1.786-0.355c0.613 0 1.22 0.121 1.786 0.355s1.081 0.578 1.514 1.012c0.433 0.433 0.777 0.948 1.012 1.514s0.355 1.173 0.355 1.786c0 0.613-0.121 1.22-0.355 1.786s-0.578 1.081-1.012 1.514c-0.433 0.433-0.948 0.777-1.514 1.012s-1.173 0.355-1.786 0.355c-0.613 0-1.22-0.121-1.786-0.355s-1.081-0.578-1.514-1.012c-0.433-0.433-0.777-0.948-1.012-1.514s-0.355-1.173-0.355-1.786zM16 16.667v0z"></path>
<path fill="none" stroke="#678398" stroke-linejoin="round" stroke-linecap="round" stroke-miterlimit="4" stroke-width="2.6667" d="M6.667 26c0-1.238 0.492-2.425 1.367-3.3s2.062-1.367 3.3-1.367h4.667v4.667c0 1.238-0.492 2.425-1.367 3.3s-2.062 1.367-3.3 1.367c-1.238 0-2.425-0.492-3.3-1.367s-1.367-2.062-1.367-3.3z"></path>
<path fill="none" stroke="#678398" stroke-linejoin="round" stroke-linecap="round" stroke-miterlimit="4" stroke-width="2.6667" d="M6.667 16.667c0-1.238 0.492-2.425 1.367-3.3s2.062-1.367 3.3-1.367h4.667v9.333h-4.667c-1.238 0-2.425-0.492-3.3-1.367s-1.367-2.062-1.367-3.3z"></path>
</svg>
