<!-- Generated by IcoMoon.io -->
<svg version="1.1" xmlns="http://www.w3.org/2000/svg" width="32" height="32" viewBox="0 0 32 32">
<title>github</title>
<path fill="none" stroke="#678398" stroke-linejoin="round" stroke-linecap="round" stroke-miterlimit="4" stroke-width="2.6667" d="M21.333 29.333v-5.16c0.050-0.636-0.036-1.275-0.252-1.875s-0.557-1.147-1.001-1.605c4.187-0.467 8.587-2.053 8.587-9.333-0-1.862-0.716-3.652-2-5 0.608-1.629 0.565-3.429-0.12-5.027 0 0-1.573-0.467-5.213 1.973-3.056-0.828-6.277-0.828-9.333 0-3.64-2.44-5.213-1.973-5.213-1.973-0.685 1.598-0.728 3.398-0.12 5.027-1.293 1.358-2.010 3.165-2 5.040 0 7.227 4.4 8.813 8.587 9.333-0.439 0.453-0.777 0.994-0.993 1.587s-0.305 1.224-0.26 1.853v5.16M12 25.333c-6.667 2-6.667-3.333-9.333-4l9.333 4z"></path>
</svg>
