<!-- Generated by IcoMoon.io -->
<svg version="1.1" xmlns="http://www.w3.org/2000/svg" width="32" height="32" viewBox="0 0 32 32">
<title>gitlab</title>
<path fill="none" stroke="#678398" stroke-linejoin="round" stroke-linecap="round" stroke-miterlimit="4" stroke-width="2.6667" d="M30.2 19.187l-14.2 10.32-14.2-10.32c-0.19-0.14-0.332-0.337-0.403-0.562s-0.071-0.467 0.003-0.692l1.627-5.040 3.253-10.013c0.032-0.082 0.082-0.155 0.147-0.213 0.106-0.096 0.244-0.15 0.387-0.15s0.281 0.054 0.387 0.15c0.069 0.066 0.119 0.149 0.147 0.24l3.253 9.987h10.8l3.253-10.013c0.032-0.082 0.082-0.155 0.147-0.213 0.106-0.096 0.244-0.15 0.387-0.15s0.281 0.054 0.387 0.15c0.069 0.066 0.119 0.149 0.147 0.24l3.253 10.013 1.693 5.013c0.067 0.231 0.058 0.478-0.026 0.704s-0.239 0.418-0.441 0.549zM30.2 19.187v0z"></path>
</svg>
