<!-- Generated by IcoMoon.io -->
<svg version="1.1" xmlns="http://www.w3.org/2000/svg" width="32" height="32" viewBox="0 0 32 32">
<title>linkedin</title>
<path fill="none" stroke="#678398" stroke-linejoin="round" stroke-linecap="round" stroke-miterlimit="4" stroke-width="2.6667" d="M21.333 10.667c2.122 0 4.157 0.843 5.657 2.343s2.343 3.535 2.343 5.657v9.333h-5.333v-9.333c0-0.707-0.281-1.385-0.781-1.886s-1.178-0.781-1.886-0.781c-0.707 0-1.385 0.281-1.886 0.781s-0.781 1.178-0.781 1.886v9.333h-5.333v-9.333c0-2.122 0.843-4.157 2.343-5.657s3.535-2.343 5.657-2.343zM21.333 10.667v0z"></path>
<path fill="none" stroke="#678398" stroke-linejoin="round" stroke-linecap="round" stroke-miterlimit="4" stroke-width="2.6667" d="M8 12h-5.333v16h5.333v-16z"></path>
<path fill="none" stroke="#678398" stroke-linejoin="round" stroke-linecap="round" stroke-miterlimit="4" stroke-width="2.6667" d="M5.333 8c1.473 0 2.667-1.194 2.667-2.667s-1.194-2.667-2.667-2.667c-1.473 0-2.667 1.194-2.667 2.667s1.194 2.667 2.667 2.667z"></path>
</svg>
